<svg width="150" height="28" viewBox="0 0 150 28" fill="none" xmlns="http://www.w3.org/2000/svg">
<path d="M0.449463 21.36L8.12946 0.359999H12.4495L20.1295 21.36H16.0495L14.3695 16.5H6.17946L4.46946 21.36H0.449463ZM7.22946 13.5H13.3195L10.2595 4.77L7.22946 13.5Z" fill="url(#paint0_linear_22_622)"/>
<path d="M27.8315 21.72C26.3115 21.72 24.9715 21.39 23.8115 20.73C22.6515 20.07 21.7315 19.15 21.0515 17.97C20.3915 16.79 20.0615 15.44 20.0615 13.92C20.0615 12.4 20.3915 11.05 21.0515 9.87C21.7315 8.69 22.6515 7.77 23.8115 7.11C24.9715 6.45 26.3115 6.12 27.8315 6.12C29.7315 6.12 31.3315 6.62 32.6315 7.62C33.9315 8.6 34.7615 9.96 35.1215 11.7H31.0715C30.8715 10.98 30.4715 10.42 29.8715 10.02C29.2915 9.6 28.6015 9.39 27.8015 9.39C26.7415 9.39 25.8415 9.79 25.1015 10.59C24.3615 11.39 23.9915 12.5 23.9915 13.92C23.9915 15.34 24.3615 16.45 25.1015 17.25C25.8415 18.05 26.7415 18.45 27.8015 18.45C28.6015 18.45 29.2915 18.25 29.8715 17.85C30.4715 17.45 30.8715 16.88 31.0715 16.14H35.1215C34.7615 17.82 33.9315 19.17 32.6315 20.19C31.3315 21.21 29.7315 21.72 27.8315 21.72Z" fill="url(#paint1_linear_22_622)"/>
<path d="M37.0298 21.36V6.48H40.4198L40.7498 8.49C41.2298 7.77 41.8598 7.2 42.6398 6.78C43.4398 6.34 44.3598 6.12 45.3998 6.12C47.6998 6.12 49.3298 7.01 50.2898 8.79C50.8298 7.97 51.5498 7.32 52.4498 6.84C53.3698 6.36 54.3698 6.12 55.4498 6.12C57.3898 6.12 58.8798 6.7 59.9198 7.86C60.9598 9.02 61.4798 10.72 61.4798 12.96V21.36H57.6398V13.32C57.6398 12.04 57.3898 11.06 56.8898 10.38C56.4098 9.7 55.6598 9.36 54.6398 9.36C53.5998 9.36 52.7598 9.74 52.1198 10.5C51.4998 11.26 51.1898 12.32 51.1898 13.68V21.36H47.3498V13.32C47.3498 12.04 47.0998 11.06 46.5998 10.38C46.0998 9.7 45.3298 9.36 44.2898 9.36C43.2698 9.36 42.4398 9.74 41.7998 10.5C41.1798 11.26 40.8698 12.32 40.8698 13.68V21.36H37.0298Z" fill="url(#paint2_linear_22_622)"/>
<path d="M70.8555 21.72C69.3555 21.72 68.0255 21.4 66.8655 20.76C65.7055 20.12 64.7955 19.22 64.1355 18.06C63.4755 16.9 63.1455 15.56 63.1455 14.04C63.1455 12.5 63.4655 11.13 64.1055 9.93C64.7655 8.73 65.6655 7.8 66.8055 7.14C67.9655 6.46 69.3255 6.12 70.8855 6.12C72.3455 6.12 73.6355 6.44 74.7555 7.08C75.8755 7.72 76.7455 8.6 77.3655 9.72C78.0055 10.82 78.3255 12.05 78.3255 13.41C78.3255 13.63 78.3155 13.86 78.2955 14.1C78.2955 14.34 78.2855 14.59 78.2655 14.85H66.9555C67.0355 16.01 67.4355 16.92 68.1555 17.58C68.8955 18.24 69.7855 18.57 70.8255 18.57C71.6055 18.57 72.2555 18.4 72.7755 18.06C73.3155 17.7 73.7155 17.24 73.9755 16.68H77.8755C77.5955 17.62 77.1255 18.48 76.4655 19.26C75.8255 20.02 75.0255 20.62 74.0655 21.06C73.1255 21.5 72.0555 21.72 70.8555 21.72ZM70.8855 9.24C69.9455 9.24 69.1155 9.51 68.3955 10.05C67.6755 10.57 67.2155 11.37 67.0155 12.45H74.4255C74.3655 11.47 74.0055 10.69 73.3455 10.11C72.6855 9.53 71.8655 9.24 70.8855 9.24Z" fill="url(#paint3_linear_22_622)"/>
<path d="M95.3036 21.72C93.1836 21.72 91.3636 21.27 89.8436 20.37C88.3236 19.45 87.1536 18.18 86.3336 16.56C85.5136 14.92 85.1036 13.03 85.1036 10.89C85.1036 8.75 85.5136 6.86 86.3336 5.22C87.1536 3.58 88.3236 2.3 89.8436 1.38C91.3636 0.46 93.1836 0 95.3036 0C97.8236 0 99.8836 0.63 101.484 1.89C103.104 3.13 104.114 4.88 104.514 7.14H100.284C100.024 6 99.4636 5.11 98.6036 4.47C97.7636 3.81 96.6436 3.48 95.2436 3.48C93.3036 3.48 91.7836 4.14 90.6836 5.46C89.5836 6.78 89.0336 8.59 89.0336 10.89C89.0336 13.19 89.5836 15 90.6836 16.32C91.7836 17.62 93.3036 18.27 95.2436 18.27C96.6436 18.27 97.7636 17.97 98.6036 17.37C99.4636 16.75 100.024 15.9 100.284 14.82H104.514C104.114 16.98 103.104 18.67 101.484 19.89C99.8836 21.11 97.8236 21.72 95.3036 21.72Z" fill="url(#paint4_linear_22_622)"/>
<path d="M113.463 21.72C112.023 21.72 110.723 21.39 109.563 20.73C108.423 20.07 107.513 19.16 106.833 18C106.173 16.82 105.843 15.46 105.843 13.92C105.843 12.38 106.183 11.03 106.863 9.87C107.543 8.69 108.453 7.77 109.593 7.11C110.753 6.45 112.053 6.12 113.493 6.12C114.913 6.12 116.193 6.45 117.333 7.11C118.493 7.77 119.403 8.69 120.063 9.87C120.743 11.03 121.083 12.38 121.083 13.92C121.083 15.46 120.743 16.82 120.063 18C119.403 19.16 118.493 20.07 117.333 20.73C116.173 21.39 114.883 21.72 113.463 21.72ZM113.463 18.39C114.463 18.39 115.333 18.02 116.073 17.28C116.813 16.52 117.183 15.4 117.183 13.92C117.183 12.44 116.813 11.33 116.073 10.59C115.333 9.83 114.473 9.45 113.493 9.45C112.473 9.45 111.593 9.83 110.853 10.59C110.133 11.33 109.773 12.44 109.773 13.92C109.773 15.4 110.133 16.52 110.853 17.28C111.593 18.02 112.463 18.39 113.463 18.39Z" fill="url(#paint5_linear_22_622)"/>
<path d="M123.016 21.36V6.48H126.436L126.796 9.27C127.336 8.31 128.066 7.55 128.986 6.99C129.926 6.41 131.026 6.12 132.286 6.12V10.17H131.206C130.366 10.17 129.616 10.3 128.956 10.56C128.296 10.82 127.776 11.27 127.396 11.91C127.036 12.55 126.856 13.44 126.856 14.58V21.36H123.016Z" fill="url(#paint6_linear_22_622)"/>
<path d="M133.411 27.96V6.48H136.831L137.251 8.61C137.731 7.95 138.361 7.37 139.141 6.87C139.941 6.37 140.971 6.12 142.231 6.12C143.631 6.12 144.881 6.46 145.981 7.14C147.081 7.82 147.951 8.75 148.591 9.93C149.231 11.11 149.551 12.45 149.551 13.95C149.551 15.45 149.231 16.79 148.591 17.97C147.951 19.13 147.081 20.05 145.981 20.73C144.881 21.39 143.631 21.72 142.231 21.72C141.111 21.72 140.131 21.51 139.291 21.09C138.451 20.67 137.771 20.08 137.251 19.32V27.96H133.411ZM141.421 18.36C142.641 18.36 143.651 17.95 144.451 17.13C145.251 16.31 145.651 15.25 145.651 13.95C145.651 12.65 145.251 11.58 144.451 10.74C143.651 9.9 142.641 9.48 141.421 9.48C140.181 9.48 139.161 9.9 138.361 10.74C137.581 11.56 137.191 12.62 137.191 13.92C137.191 15.22 137.581 16.29 138.361 17.13C139.161 17.95 140.181 18.36 141.421 18.36Z" fill="url(#paint7_linear_22_622)"/>
<defs>
<linearGradient id="paint0_linear_22_622" x1="0.449463" y1="0" x2="10.5796" y2="54.0204" gradientUnits="userSpaceOnUse">
<stop stop-color="#E0C3FC"/>
<stop offset="1" stop-color="#8EC5FC"/>
</linearGradient>
<linearGradient id="paint1_linear_22_622" x1="0.449463" y1="0" x2="10.5796" y2="54.0204" gradientUnits="userSpaceOnUse">
<stop stop-color="#E0C3FC"/>
<stop offset="1" stop-color="#8EC5FC"/>
</linearGradient>
<linearGradient id="paint2_linear_22_622" x1="0.449463" y1="0" x2="10.5796" y2="54.0204" gradientUnits="userSpaceOnUse">
<stop stop-color="#E0C3FC"/>
<stop offset="1" stop-color="#8EC5FC"/>
</linearGradient>
<linearGradient id="paint3_linear_22_622" x1="0.449463" y1="0" x2="10.5796" y2="54.0204" gradientUnits="userSpaceOnUse">
<stop stop-color="#E0C3FC"/>
<stop offset="1" stop-color="#8EC5FC"/>
</linearGradient>
<linearGradient id="paint4_linear_22_622" x1="0.449463" y1="0" x2="10.5796" y2="54.0204" gradientUnits="userSpaceOnUse">
<stop stop-color="#E0C3FC"/>
<stop offset="1" stop-color="#8EC5FC"/>
</linearGradient>
<linearGradient id="paint5_linear_22_622" x1="0.449463" y1="0" x2="10.5796" y2="54.0204" gradientUnits="userSpaceOnUse">
<stop stop-color="#E0C3FC"/>
<stop offset="1" stop-color="#8EC5FC"/>
</linearGradient>
<linearGradient id="paint6_linear_22_622" x1="0.449463" y1="0" x2="10.5796" y2="54.0204" gradientUnits="userSpaceOnUse">
<stop stop-color="#E0C3FC"/>
<stop offset="1" stop-color="#8EC5FC"/>
</linearGradient>
<linearGradient id="paint7_linear_22_622" x1="0.449463" y1="0" x2="10.5796" y2="54.0204" gradientUnits="userSpaceOnUse">
<stop stop-color="#E0C3FC"/>
<stop offset="1" stop-color="#8EC5FC"/>
</linearGradient>
</defs>
</svg>
