<svg width="181" height="80" viewBox="0 0 181 80" fill="none" xmlns="http://www.w3.org/2000/svg">
<path d="M155.667 65.6862L155.67 65.6846C156.911 65.1085 157.913 64.2823 158.684 63.2026C159.435 62.1512 159.824 60.8602 159.824 59.2998V55.5593C159.518 55.6712 159.202 55.7792 158.876 55.8836C158.294 56.0772 157.668 56.2578 156.996 56.4258C156.345 56.5943 155.649 56.7502 154.907 56.8938C154.189 57.0373 153.436 57.1687 152.649 57.2879L152.648 57.2882L152.565 56.7454L152.649 57.2879C151.177 57.5179 150.003 57.8926 149.108 58.3949L149.104 58.3972C148.227 58.8791 147.596 59.4663 147.181 60.1494L147.182 60.1477L146.71 59.8675L147.179 60.152L147.181 60.1494C146.786 60.8147 146.585 61.5675 146.585 62.4218C146.585 63.7899 147.056 64.7752 147.963 65.4607C148.912 66.1769 150.148 66.556 151.714 66.556C153.126 66.556 154.441 66.2652 155.667 65.6862Z" fill="url(#paint0_radial_22_715)"/>
<path fill-rule="evenodd" clip-rule="evenodd" d="M135.884 78.2534L135.878 78.2511C133.134 77.0506 130.966 75.2309 129.391 72.7955C127.805 70.3423 127.032 67.2505 127.032 63.5571C127.032 60.5163 127.551 57.8877 128.613 55.6906C129.667 53.4855 131.143 51.6763 133.039 50.273C134.918 48.8826 137.095 47.8268 139.563 47.1011L139.565 47.1007C142.042 46.3794 144.706 45.9122 147.555 45.6967C150.597 45.461 153.024 45.1791 154.843 44.8528C156.683 44.5033 157.93 44.0385 158.657 43.5005C159.349 42.9657 159.682 42.2871 159.682 41.4191V41.2772C159.682 40.0228 159.214 39.1099 158.285 38.4639C157.312 37.7871 156.034 37.4269 154.411 37.4269C152.621 37.4269 151.215 37.8228 150.148 38.5694L150.146 38.5707C149.137 39.2702 148.503 40.3604 148.283 41.9214L148.216 42.3938H129.121L129.163 41.8057C129.406 38.3981 130.491 35.2555 132.413 32.3862C134.37 29.4751 137.212 27.1674 140.906 25.4535C144.619 23.7067 149.224 22.8476 154.695 22.8476C158.64 22.8476 162.195 23.3135 165.354 24.2535C168.504 25.1671 171.204 26.4585 173.442 28.1361C175.677 29.7879 177.39 31.7408 178.568 33.9963C179.77 36.2304 180.37 38.6605 180.37 41.2772V79.1485H160.96V72.2526C159.964 73.866 158.797 75.2158 157.454 76.2943C155.856 77.596 154.027 78.5398 151.973 79.1269C149.952 79.711 147.735 80 145.326 80C141.788 80 138.637 79.4226 135.884 78.2534ZM151.82 78.5996C153.808 78.032 155.57 77.1214 157.108 75.8678C158.611 74.6612 159.895 73.093 160.96 71.1633C161.001 71.0882 161.042 71.0126 161.083 70.9365H161.509V78.5996H179.821V41.2772C179.821 38.7465 179.241 36.4049 178.082 34.2526C176.946 32.0767 175.29 30.1845 173.114 28.5762C170.937 26.9443 168.299 25.6789 165.2 24.7801C162.1 23.8577 158.599 23.3965 154.695 23.3965C149.277 23.3965 144.758 24.248 141.138 25.9509C137.518 27.6302 134.762 29.8771 132.869 32.6916C131.104 35.3276 130.066 38.1957 129.757 41.2959C129.739 41.4781 129.724 41.6611 129.71 41.8448H147.739C147.975 40.1656 148.673 38.9239 149.833 38.1197C151.016 37.2919 152.542 36.878 154.411 36.878C156.114 36.878 157.51 37.2564 158.599 38.0133C159.687 38.7701 160.231 39.8581 160.231 41.2772V41.4191C160.231 42.4598 159.817 43.2994 158.989 43.938C158.161 44.553 156.812 45.0378 154.943 45.3926C153.098 45.7237 150.649 46.0075 147.597 46.2441C144.781 46.4569 142.155 46.9181 139.718 47.6277C137.305 48.3372 135.188 49.3661 133.366 50.7142C131.544 52.0624 130.124 53.8008 129.107 55.9294C128.09 58.0344 127.581 60.577 127.581 63.5571C127.581 67.1758 128.338 70.156 129.852 72.4975C131.367 74.839 133.449 76.5892 136.098 77.7482C138.772 78.8834 141.848 79.4511 145.326 79.4511C147.692 79.4511 149.856 79.1673 151.82 78.5996Z" fill="url(#paint1_radial_22_715)"/>
<path fill-rule="evenodd" clip-rule="evenodd" d="M97.0177 79.1485V23.5571H117.706V79.1485H97.0177ZM97.5668 24.106H117.157V78.5996H97.5668V24.106Z" fill="url(#paint2_radial_22_715)"/>
<path fill-rule="evenodd" clip-rule="evenodd" d="M0.629883 5.39259H26.1057L42.9985 46.5466H43.1138L60.0067 5.39259H85.4825V79.1485H65.0782V38.0556L49.2515 78.5809H36.8599L21.0342 37.7804V79.1485H0.629883V5.39259ZM21.0529 36.3103L37.236 78.032H48.8764L65.0594 36.5941H65.6273V78.5996H84.9333V5.94151H60.3749L43.482 47.0955H42.6303L25.7375 5.94151H1.17899V78.5996H20.4851V36.3103H21.0529Z" fill="url(#paint3_radial_22_715)"/>
<path fill-rule="evenodd" clip-rule="evenodd" d="M107.362 18.9786C104.578 18.9786 102.172 18.0542 100.175 16.2073C98.1759 14.3587 97.1596 12.1101 97.1596 9.48928C97.1596 6.86843 98.1759 4.61982 100.175 2.7713C102.172 0.924396 104.578 0 107.362 0C110.167 0 112.574 0.92325 114.55 2.77255C116.548 4.62083 117.564 6.86902 117.564 9.48928C117.564 12.1095 116.548 14.3577 114.55 16.206C112.574 18.0553 110.167 18.9786 107.362 18.9786ZM114.176 15.8043C112.307 17.5545 110.035 18.4296 107.362 18.4296C104.712 18.4296 102.441 17.5545 100.548 15.8043C98.6551 14.0541 97.7087 11.9491 97.7087 9.48928C97.7087 7.0295 98.6551 4.92449 100.548 3.17427C102.441 1.42404 104.712 0.548928 107.362 0.548928C110.035 0.548928 112.307 1.42404 114.176 3.17427C116.068 4.92449 117.015 7.0295 117.015 9.48928C117.015 11.9491 116.068 14.0541 114.176 15.8043Z" fill="url(#paint4_radial_22_715)"/>
<defs>
<radialGradient id="paint0_radial_22_715" cx="0" cy="0" r="1" gradientUnits="userSpaceOnUse" gradientTransform="translate(80.7556 16.6131) rotate(90) scale(67.0606 173.76)">
<stop stop-color="white"/>
<stop offset="0.75" stop-color="white" stop-opacity="0.5"/>
<stop offset="1" stop-color="white" stop-opacity="0.2"/>
</radialGradient>
<radialGradient id="paint1_radial_22_715" cx="0" cy="0" r="1" gradientUnits="userSpaceOnUse" gradientTransform="translate(80.7556 16.6131) rotate(90) scale(67.0606 173.76)">
<stop stop-color="white"/>
<stop offset="0.75" stop-color="white" stop-opacity="0.5"/>
<stop offset="1" stop-color="white" stop-opacity="0.2"/>
</radialGradient>
<radialGradient id="paint2_radial_22_715" cx="0" cy="0" r="1" gradientUnits="userSpaceOnUse" gradientTransform="translate(80.7556 16.6131) rotate(90) scale(67.0606 173.76)">
<stop stop-color="white"/>
<stop offset="0.75" stop-color="white" stop-opacity="0.5"/>
<stop offset="1" stop-color="white" stop-opacity="0.2"/>
</radialGradient>
<radialGradient id="paint3_radial_22_715" cx="0" cy="0" r="1" gradientUnits="userSpaceOnUse" gradientTransform="translate(80.7556 16.6131) rotate(90) scale(67.0606 173.76)">
<stop stop-color="white"/>
<stop offset="0.75" stop-color="white" stop-opacity="0.5"/>
<stop offset="1" stop-color="white" stop-opacity="0.2"/>
</radialGradient>
<radialGradient id="paint4_radial_22_715" cx="0" cy="0" r="1" gradientUnits="userSpaceOnUse" gradientTransform="translate(80.7556 16.6131) rotate(90) scale(67.0606 173.76)">
<stop stop-color="white"/>
<stop offset="0.75" stop-color="white" stop-opacity="0.5"/>
<stop offset="1" stop-color="white" stop-opacity="0.2"/>
</radialGradient>
</defs>
</svg>
