<svg width="880" height="320" viewBox="0 0 880 320" fill="none" xmlns="http://www.w3.org/2000/svg">
<circle cx="375.704" cy="122.074" r="1.18519" fill="#505050"/>
<circle cx="352" cy="165.926" r="1.18519" fill="#505050"/>
<circle cx="295.111" cy="145.778" r="1.18519" fill="#505050"/>
<circle cx="241.778" cy="246.519" r="1.18519" fill="#505050"/>
<circle cx="612.741" cy="80.5926" r="1.18519" fill="#505050"/>
<circle cx="629.333" cy="99.5555" r="1.18519" fill="#505050"/>
<circle cx="171.852" cy="170.667" r="1.18519" fill="#505050"/>
<circle cx="502.518" cy="34.3704" r="1.18519" fill="#505050"/>
<circle cx="560.592" cy="142.222" r="1.18519" fill="#505050"/>
<circle cx="174.222" cy="107.852" r="1.18519" fill="#505050"/>
<circle cx="278.518" cy="1.18519" r="1.18519" fill="#505050"/>
<circle cx="404.148" cy="15.4074" r="1.18519" fill="#505050"/>
<circle cx="404.148" cy="15.4074" r="1.18519" fill="#505050"/>
<circle cx="404.148" cy="15.4074" r="1.18519" fill="#505050"/>
<circle cx="404.148" cy="15.4074" r="1.18519" fill="#505050"/>
<circle cx="602.074" cy="235.852" r="1.18519" fill="#505050"/>
<circle cx="459.852" cy="175.407" r="1.18519" fill="#505050"/>
<circle cx="280.889" cy="75.8519" r="1.18519" fill="#505050"/>
<circle cx="244.741" cy="123.852" r="0.592593" fill="#505050"/>
<circle cx="209.185" cy="172.444" r="0.592593" fill="#505050"/>
<circle cx="173.63" cy="221.037" r="0.592593" fill="#505050"/>
<circle cx="138.074" cy="269.63" r="0.592593" fill="#505050"/>
<circle cx="68.1481" cy="243.556" r="0.592593" fill="#505050"/>
<circle cx="20.7407" cy="319.407" r="0.592593" fill="#505050"/>
<circle cx="0.592471" cy="260.148" r="0.592593" fill="#505050"/>
<circle cx="79.9998" cy="187.852" r="0.592593" fill="#505050"/>
<circle cx="158.222" cy="146.37" r="0.592593" fill="#505050"/>
<circle cx="703.407" cy="210.37" r="0.592593" fill="#505050"/>
<circle cx="691.555" cy="125.037" r="0.592593" fill="#505050"/>
<circle cx="760.296" cy="157.037" r="0.592593" fill="#505050"/>
<circle cx="740.148" cy="97.7778" r="0.592593" fill="#505050"/>
<circle cx="746.074" cy="270.815" r="0.592593" fill="#505050"/>
<circle cx="446.222" cy="90.6667" r="0.592593" fill="#505050"/>
<circle cx="703.407" cy="244.741" r="0.592593" fill="#505050"/>
<circle cx="296.889" cy="210.37" r="0.592593" fill="#505050"/>
<circle cx="378.667" cy="59.8519" r="0.592593" fill="#505050"/>
<circle cx="440.296" cy="141.63" r="0.592593" fill="#505050"/>
<circle cx="613.333" cy="177.185" r="0.592593" fill="#505050"/>
<circle cx="878.815" cy="258.963" r="0.592593" fill="#505050"/>
<circle cx="830.222" cy="302.815" r="0.592593" fill="#505050"/>
<circle cx="520.889" cy="164.148" r="0.592593" fill="#505050"/>
<circle cx="430.815" cy="186.667" r="0.592593" fill="#505050"/>
<circle cx="661.333" cy="189.63" r="1.18519" fill="#505050"/>
<circle cx="790.518" cy="208.593" r="1.18519" fill="#505050"/>
<circle cx="592.592" cy="13.037" r="1.18519" fill="#505050"/>
<circle cx="444.444" cy="224" r="1.18519" fill="#505050"/>
</svg>
