<svg width="422" height="80" viewBox="0 0 422 80" fill="none" xmlns="http://www.w3.org/2000/svg">
<path fill-rule="evenodd" clip-rule="evenodd" d="M17.7778 14.7589V62.4738H35.2201V14.7589H52.9979V0H0V14.7589H17.7778ZM1 13.7589H18.7778V61.4738H34.2201V13.7589H51.9979V1H1V13.7589ZM74.194 0H57.4225V62.4738H74.194V38.9937C74.194 33.8784 76.4163 31.3627 80.3576 31.3627C84.2989 31.3627 86.5211 33.8784 86.5211 38.3229V62.4738H103.293V34.5493C103.293 23.8994 98.2192 17.1908 88.3659 17.1908C82.3037 17.1908 78.1118 19.6956 75.194 23.7217C74.8426 24.2066 74.5096 24.7137 74.194 25.2411V0ZM102.293 61.4738V34.5493C102.293 29.3676 101.057 25.2854 98.7551 22.5154C96.4767 19.7737 93.0486 18.1908 88.3659 18.1908C81.9635 18.1908 77.8272 21.1162 75.0522 25.7545L73.194 28.8603V1H58.4225V61.4738H73.194V38.9937C73.194 36.3122 73.7737 34.1394 75.027 32.6229C76.3075 31.0735 78.1622 30.3627 80.3576 30.3627C82.5498 30.3627 84.389 31.0702 85.6662 32.5134C86.9271 33.9382 87.5211 35.9461 87.5211 38.3229V61.4738H102.293ZM227.844 0H211.073V62.4738H227.844V50.1887L230.276 47.1698L239.668 62.4738H258.704L242.603 37.652L258.201 18.1971H239.249L228.012 32.6205H227.844V0ZM239.737 19.1971L228.5 33.6205H226.844V1H212.073V61.4738H226.844V49.836L230.387 45.4383L240.228 61.4738H256.863L241.371 37.5901L256.117 19.1971H239.737ZM405.493 51.3688V61.4738H420.055V19.1971H405.284V41.6772C405.284 44.3587 404.704 46.5315 403.451 48.048C402.17 49.5974 400.316 50.3082 398.12 50.3082C395.928 50.3082 394.089 49.6007 392.812 48.1575C391.551 46.7326 390.957 44.7248 390.957 42.348V19.1971H376.185V46.1216C376.185 51.3032 377.421 55.3855 379.723 58.1554C382.001 60.8971 385.429 62.4801 390.112 62.4801C393.426 62.4801 396.101 61.694 398.285 60.3398C400.474 58.9824 402.224 57.0208 403.628 54.5936L405.493 51.3688ZM404.493 62.4738H421.055V18.1971H404.284V41.6772C404.284 46.7925 402.061 49.3082 398.12 49.3082C394.179 49.3082 391.957 46.7925 391.957 42.348V18.1971H375.185V46.1216C375.185 56.7715 380.259 63.4801 390.112 63.4801C396.325 63.4801 400.567 60.8407 403.493 56.6654C403.845 56.1633 404.178 55.639 404.493 55.0943V62.4738ZM296.669 43.7486C296.046 41.4928 295.417 39.237 294.764 36.9811L289.187 18.1971H271.745L288.726 62.4738L288.516 63.1447C287.552 66.2474 287.049 67.2537 283.946 67.2537H277.237V80H288.642C296.608 80 300.801 76.7296 304.03 68.0922L322.73 18.1971H305.455L299.669 36.9811C298.982 39.205 298.321 41.4799 297.705 43.7462C297.532 44.3854 297.361 45.0239 297.195 45.6604C297.02 45.0231 296.844 44.3859 296.669 43.7486ZM306.194 19.1971L300.625 37.2755C299.749 40.1131 298.914 43.0346 298.163 45.9128L297.222 49.5219L296.231 45.9259C295.435 43.0325 294.64 40.1458 293.804 37.261C293.803 37.2605 293.803 37.26 293.803 37.2595L288.441 19.1971H273.199L289.784 62.4403L289.471 63.4415C289.471 63.4417 289.471 63.4412 289.471 63.4415C289.008 64.9302 288.582 66.2206 287.743 67.0669C286.82 67.9976 285.574 68.2537 283.946 68.2537H278.237V79H288.642C292.486 79 295.284 78.2129 297.5 76.4948C299.737 74.7609 301.508 71.9826 303.093 67.7421L321.287 19.1971H306.194ZM175.411 18.1971H158.849V62.4738H175.621V38.9937C175.621 33.8784 177.843 31.3627 181.784 31.3627C185.726 31.3627 187.948 33.8784 187.948 38.3229V62.4738H204.719V34.5493C204.719 23.8994 199.646 17.1908 189.793 17.1908C183.58 17.1908 179.338 19.8301 176.411 24.0054C176.059 24.5076 175.726 25.0319 175.411 25.5765V18.1971ZM203.719 61.4738V34.5493C203.719 29.3676 202.484 25.2854 200.182 22.5154C197.903 19.7737 194.475 18.1908 189.793 18.1908C186.479 18.1908 183.804 18.9769 181.619 20.331C179.43 21.6885 177.681 23.6501 176.277 26.0773L174.411 29.3021V19.1971H159.849V61.4738H174.621V38.9937C174.621 36.3122 175.2 34.1394 176.454 32.6229C177.734 31.0735 179.589 30.3627 181.784 30.3627C183.976 30.3627 185.816 31.0702 187.093 32.5134C188.354 33.9382 188.948 35.9461 188.948 38.3229V61.4738H203.719ZM135.388 55.2683H137.144V61.4738H151.496V32.8721C151.496 28.1094 149.785 24.5043 146.538 22.0564C143.246 19.5752 138.251 18.1908 131.532 18.1908C124.859 18.1908 119.889 19.5731 116.523 22.0619C113.445 24.3382 111.61 27.6126 111.082 31.8721H124.496C124.797 30.7271 125.421 29.7714 126.372 29.0771C127.532 28.2299 129.074 27.847 130.861 27.847C132.511 27.847 133.974 28.1836 135.06 28.8727C136.177 29.5813 136.892 30.6738 136.892 32.0335V32.2013C136.892 33.035 136.631 33.7953 136.051 34.4322C135.498 35.0398 134.715 35.4702 133.78 35.7972C131.927 36.4451 129.117 36.8054 125.224 37.0565C120.527 37.3656 116.49 38.4115 113.65 40.4784C110.869 42.5024 109.135 45.576 109.135 50.2306C109.135 54.3767 110.584 57.333 112.979 59.2757C115.406 61.2441 118.928 62.2704 123.23 62.2704C125.964 62.2704 128.243 61.8543 130.166 60.8619C132.076 59.8763 133.714 58.2809 135.102 55.7827L135.388 55.2683ZM125.158 36.0587C132.957 35.5556 135.892 34.6331 135.892 32.2013V32.0335C135.892 30.1048 133.922 28.847 130.861 28.847C127.548 28.847 125.62 30.2725 125.326 32.8721H109.98C110.004 32.5337 110.036 32.2004 110.074 31.8721C111.188 22.4377 118.403 17.1908 131.532 17.1908C145.2 17.1908 152.496 22.8092 152.496 32.8721V62.4738H136.144V56.2683H135.976C135.709 56.7494 135.431 57.201 135.144 57.6243C132.272 61.8502 128.375 63.2704 123.23 63.2704C114.341 63.2704 108.135 59.0356 108.135 50.2306C108.135 40.3354 115.599 36.6876 125.158 36.0587ZM136.06 46.7925C136.06 50.7338 132.286 52.8302 128.68 52.8302C125.829 52.8302 123.817 51.4885 123.817 49.2243C123.817 46.9602 125.913 45.4507 129.351 44.8637C131.858 44.4233 133.599 44.0376 135.06 43.596C135.407 43.4911 135.738 43.3831 136.06 43.2704V46.7925ZM129.18 43.8785C127.373 44.1874 125.815 44.7536 124.685 45.6225C123.525 46.5151 122.817 47.735 122.817 49.2243C122.817 50.6929 123.487 51.8905 124.595 52.688C125.673 53.4632 127.113 53.8302 128.68 53.8302C130.661 53.8302 132.72 53.2577 134.312 52.0973C135.927 50.9191 137.06 49.1256 137.06 46.7925V41.861L135.73 42.3266C134.128 42.8872 132.261 43.3373 129.18 43.8785ZM329.577 56.5114C333.598 60.3143 339.374 62.4801 346.358 62.4801C353.362 62.4801 359.138 60.3042 363.154 56.4965C367.165 52.6944 369.509 47.1833 369.509 40.3354C369.509 33.5091 367.165 27.9976 363.154 24.1896C359.137 20.3764 353.361 18.1908 346.358 18.1908C339.376 18.1908 333.6 20.376 329.577 24.1901C325.56 27.9986 323.207 33.5104 323.207 40.3354C323.207 47.2037 325.561 52.7144 329.577 56.5114ZM352.248 48.4798C350.753 50.4065 348.659 51.3983 346.358 51.3983C344.058 51.3983 341.963 50.4065 340.468 48.4798C338.989 46.5732 338.146 43.8198 338.146 40.3354C338.146 36.8511 338.989 34.0976 340.468 32.1911C341.963 30.2644 344.058 29.2725 346.358 29.2725C348.659 29.2725 350.753 30.2644 352.248 32.1911C353.727 34.0976 354.57 36.8511 354.57 40.3354C354.57 43.8198 353.727 46.5732 352.248 48.4798ZM346.358 63.4801C331.976 63.4801 322.207 54.5493 322.207 40.3354C322.207 26.2055 331.976 17.1908 346.358 17.1908C360.782 17.1908 370.509 26.2055 370.509 40.3354C370.509 54.5073 360.782 63.4801 346.358 63.4801ZM346.358 50.3983C350.341 50.3983 353.57 47.0021 353.57 40.3354C353.57 33.6688 350.341 30.2725 346.358 30.2725C342.375 30.2725 339.146 33.6688 339.146 40.3354C339.146 47.0021 342.375 50.3983 346.358 50.3983Z" fill="url(#paint0_radial_105_5)"/>
<defs>
<radialGradient id="paint0_radial_105_5" cx="0" cy="0" r="1" gradientUnits="userSpaceOnUse" gradientTransform="translate(187.701 16.6131) rotate(90) scale(67.0606 407.047)">
<stop stop-color="white"/>
<stop offset="0.51" stop-color="white" stop-opacity="0.5"/>
<stop offset="1" stop-color="white" stop-opacity="0"/>
</radialGradient>
</defs>
</svg>
